<svg xmlns="http://www.w3.org/2000/svg" xmlns:xlink="http://www.w3.org/1999/xlink" id="Capa_1" x="0px" y="0px" viewBox="0 0 481.89 99.21" style="enable-background:new 0 0 481.89 99.21;" xml:space="preserve" height="100px" width="100px" transform="rotate(0) scale(1, 1)"><style type="text/css">.st0 { fill: #000000; }</style><g>	<path class="st0" d="M31.91,94.62c4.08,0,7.96-0.73,11.64-2.2s6.75-3.76,9.22-6.88c2.47-3.12,3.86-7.16,4.14-12.1h3.89  c-0.24,5.28-1.71,9.8-4.4,13.55s-6.17,6.61-10.45,8.57S37,98.51,31.91,98.51c-5.05,0-9.55-0.95-13.51-2.85  c-3.96-1.9-7.3-4.57-10.02-8.03c-2.72-3.46-4.78-7.57-6.2-12.32c-1.42-4.76-2.13-9.99-2.13-15.71v-3.03  c0-5.71,0.71-10.95,2.13-15.71C3.6,36.11,5.67,32,8.38,28.54c2.71-3.46,6.03-6.14,9.94-8.03c3.92-1.9,8.39-2.85,13.44-2.85  c5.04,0,9.72,1.02,14.02,3.06c4.3,2.04,7.82,5.08,10.56,9.11c2.74,4.04,4.23,9.03,4.47,14.99h-3.89c-0.24-5.19-1.55-9.5-3.93-12.93  c-2.38-3.44-5.44-6.02-9.19-7.75c-3.75-1.73-7.76-2.59-12.03-2.59c-4.76,0-8.89,0.9-12.39,2.7c-3.51,1.8-6.4,4.31-8.68,7.53  c-2.28,3.22-3.97,6.94-5.08,11.17c-1.11,4.23-1.66,8.77-1.66,13.62v3.03c0,4.9,0.55,9.46,1.66,13.69c1.11,4.23,2.8,7.94,5.08,11.13  c2.28,3.2,5.19,5.69,8.72,7.5C22.94,93.72,27.11,94.62,31.91,94.62z"/>	<path class="st0" d="M79.8,97.07h-3.89V55.26c0.99-13.04,3.43-20.3,6.6-25.31c-0.5,2.01,1.5,1.4,0.85,5.07  C78.82,47.76,78.6,53,78.83,71.39C78.91,78.11,79.16,86.83,79.8,97.07z M110.71,18.46l-0.43,3.46c-0.77-0.09-1.57-0.19-2.41-0.29  c-0.84-0.09-1.72-0.14-2.63-0.14c-4.37,0-8.2,0.89-11.49,2.67s-6.03,4.23-8.21,7.35c-2.19,3.12-3.82,6.71-4.9,10.77  c-1.08,4.06-1.62,8.39-1.62,13l-2.59,0.22c0-5.48,0.59-10.52,1.77-15.13c1.18-4.61,2.95-8.61,5.33-12  c2.38-3.39,5.38-6.02,9.01-7.89c3.63-1.87,7.86-2.81,12.72-2.81c1.2,0,2.26,0.07,3.17,0.22C109.32,18.02,110.08,18.22,110.71,18.46  z"/>	<path class="st0" d="M118.53,59.82v-3.46c0-5.19,0.75-10.11,2.24-14.77c1.49-4.66,3.66-8.79,6.52-12.39s6.29-6.42,10.31-8.47  c4.01-2.04,8.54-3.06,13.58-3.06c5.09,0,9.59,1.06,13.51,3.17c3.92,2.11,7.32,4.83,10.23,8.14s5.34,6.78,7.32,10.41  c1.97,3.63,3.53,6.99,4.68,10.09c1.15,3.1,1.97,5.47,2.45,7.1v3.03c-0.43,1.54-1.21,3.84-2.34,6.92  c-1.13,3.07-2.68,6.44-4.65,10.09c-1.97,3.65-4.39,7.14-7.28,10.48c-2.88,3.34-6.28,6.09-10.2,8.25  c-3.92,2.16-8.44,3.24-13.58,3.24c-5.09,0-9.65-1.03-13.69-3.1c-4.03-2.06-7.47-4.89-10.3-8.47c-2.84-3.58-5.01-7.71-6.52-12.39  C119.29,69.94,118.53,65,118.53,59.82z M122.42,56.36v3.46c0,4.23,0.6,8.41,1.8,12.54c1.2,4.13,3,7.88,5.4,11.24  c2.4,3.36,5.41,6.05,9.04,8.07c3.63,2.02,7.84,3.03,12.65,3.03c5,0,9.38-1.19,13.15-3.57c3.77-2.38,6.99-5.32,9.65-8.83  c2.67-3.51,4.84-7.01,6.52-10.52c1.68-3.51,2.91-6.43,3.67-8.76c0.77-2.33,1.15-3.47,1.15-3.42v-3.03c0,0.05-0.38-1.09-1.15-3.42  c-0.77-2.33-1.99-5.24-3.67-8.72c-1.68-3.48-3.87-6.98-6.56-10.49c-2.69-3.51-5.93-6.45-9.73-8.83c-3.79-2.38-8.19-3.57-13.19-3.57  c-4.8,0-9,1.02-12.57,3.06c-3.58,2.04-6.57,4.75-8.97,8.11c-2.4,3.36-4.2,7.1-5.4,11.2C123.02,48.04,122.42,52.18,122.42,56.36z   M257.39,56.36v3.46c0,5.19-0.76,10.12-2.27,14.81c-1.51,4.68-3.69,8.82-6.52,12.39c-2.83,3.58-6.27,6.4-10.3,8.47  c-4.04,2.07-8.57,3.1-13.62,3.1c-5.09,0-9.62-1.08-13.58-3.24c-3.96-2.16-7.39-4.91-10.27-8.25c-2.88-3.34-5.31-6.83-7.28-10.48  c-1.97-3.65-3.53-7.01-4.68-10.09c-1.15-3.08-1.95-5.38-2.38-6.92v-3.03c0.48-1.63,1.31-4,2.49-7.1c1.18-3.1,2.75-6.46,4.72-10.09  c1.97-3.63,4.41-7.1,7.31-10.41c2.91-3.31,6.33-6.03,10.27-8.14c3.94-2.11,8.45-3.17,13.55-3.17c5.05,0,9.57,1.02,13.58,3.06  c4.01,2.04,7.43,4.86,10.27,8.47c2.83,3.6,5,7.73,6.48,12.39C256.64,46.25,257.39,51.17,257.39,56.36z M253.5,59.82v-3.46  c0-4.18-0.6-8.32-1.8-12.43s-2.99-7.84-5.37-11.2c-2.38-3.36-5.37-6.07-8.97-8.11c-3.6-2.04-7.78-3.06-12.54-3.06  c-5.05,0-9.47,1.19-13.26,3.57c-3.8,2.38-7.04,5.32-9.73,8.83c-2.69,3.51-4.88,7-6.56,10.49c-1.68,3.48-2.91,6.39-3.68,8.72  c-0.77,2.33-1.15,3.47-1.15,3.42v3.03c0-0.05,0.39,1.09,1.15,3.42c0.77,2.33,1.98,5.25,3.64,8.76c1.66,3.51,3.83,7.01,6.52,10.52  c2.69,3.51,5.93,6.45,9.73,8.83c3.79,2.38,8.19,3.57,13.19,3.57c4.8,0,9.01-1.01,12.61-3.03c3.6-2.02,6.6-4.71,9.01-8.07  c2.4-3.36,4.2-7.11,5.4-11.24C252.89,68.22,253.5,64.04,253.5,59.82z"/>	<path class="st0" d="M270.76,59.24v-2.31c0-5.67,0.83-10.91,2.49-15.71c1.66-4.8,4-8.96,7.02-12.46c3.03-3.51,6.68-6.23,10.95-8.18  s9.03-2.92,14.27-2.92c5.28,0,10.08,0.97,14.38,2.92c4.3,1.95,7.97,4.67,11.03,8.18c3.05,3.51,5.39,7.66,7.02,12.46  s2.45,10.04,2.45,15.71v2.31c0,5.67-0.82,10.89-2.45,15.67c-1.63,4.78-3.97,8.93-7.02,12.46c-3.05,3.53-6.7,6.27-10.95,8.21  s-9.02,2.92-14.3,2.92c-5.28,0-10.06-0.97-14.34-2.92s-7.94-4.68-10.99-8.21c-3.05-3.53-5.4-7.68-7.06-12.46  C271.59,70.13,270.76,64.91,270.76,59.24z M279.4,56.94v2.31c0,4.28,0.57,8.32,1.7,12.14c1.13,3.82,2.81,7.21,5.04,10.16  c2.24,2.95,4.98,5.28,8.25,6.99c3.27,1.71,7.01,2.56,11.24,2.56c4.23,0,7.96-0.85,11.2-2.56c3.24-1.7,5.97-4.03,8.18-6.99  c2.21-2.95,3.88-6.34,5.01-10.16c1.13-3.82,1.7-7.86,1.7-12.14v-2.31c0-4.23-0.57-8.24-1.7-12.03c-1.13-3.79-2.81-7.18-5.04-10.16  c-2.24-2.98-4.99-5.33-8.25-7.06c-3.27-1.73-7.01-2.59-11.24-2.59c-4.18,0-7.89,0.87-11.13,2.59c-3.24,1.73-5.98,4.08-8.21,7.06  c-2.23,2.98-3.92,6.37-5.04,10.16C279.97,48.7,279.4,52.71,279.4,56.94z"/>	<path class="st0" d="M384,98.51c-5.09,0-9.78-0.94-14.05-2.81c-4.28-1.88-7.98-4.51-11.1-7.93c-3.12-3.41-5.55-7.46-7.28-12.14  c-1.73-4.68-2.59-9.81-2.59-15.38v-3.1c0-6,0.9-11.43,2.7-16.29c1.8-4.85,4.25-9.02,7.35-12.5c3.1-3.48,6.66-6.14,10.67-7.96  s8.25-2.74,12.72-2.74c4.95,0,9.33,0.88,13.15,2.63c3.82,1.75,7.05,4.23,9.69,7.42c2.64,3.2,4.64,6.97,5.98,11.31  c1.34,4.35,2.02,9.14,2.02,14.37v5.26h-59.01v-7.42h50.37V50.3c-0.1-4.37-0.97-8.47-2.63-12.28c-1.66-3.82-4.11-6.93-7.35-9.33  c-3.24-2.4-7.31-3.6-12.21-3.6c-3.7,0-7.06,0.77-10.09,2.31c-3.03,1.54-5.63,3.74-7.82,6.59c-2.19,2.86-3.88,6.25-5.08,10.16  c-1.2,3.92-1.8,8.25-1.8,13.01v3.1c0,4.28,0.65,8.29,1.95,12.03c1.29,3.74,3.12,7.02,5.48,9.83c2.35,2.81,5.16,5.02,8.43,6.63  c3.27,1.61,6.89,2.41,10.88,2.41c4.56,0,8.63-0.85,12.21-2.56c3.58-1.7,6.78-4.41,9.62-8.11l5.4,4.18  c-1.73,2.5-3.84,4.79-6.34,6.88c-2.5,2.09-5.5,3.77-9.01,5.04C392.74,97.87,388.66,98.51,384,98.51z"/>	<path class="st0" d="M425.11,19.1l25.36,69.82l1.3,8.14h-6.34L416.18,19.1H425.11z M447.74,88.71l25-69.61h8.86l-29.19,77.97h-6.27  L447.74,88.71z"/></g><polygon class="st0" points="331.72,32.03 331.72,-0.25 340.36,-0.25 340.36,56.2 332.29,56.2 "/><path class="st0" d="M75.91,55.26"/></svg>